<svg width="24" height="21" viewBox="0 0 24 21" fill="none" xmlns="http://www.w3.org/2000/svg">
<path d="M21.8292 11.8681L23.6992 3.67556C23.8343 3.08404 23.3827 2.52077 22.7735 2.52077H7.23599L6.8734 0.755837C6.78305 0.315923 6.39428 0 5.94329 0H1.88749C1.36316 0 0.93811 0.423214 0.93811 0.945289V1.57548C0.93811 2.09756 1.36316 2.52077 1.88749 2.52077H4.65189L7.43073 16.0477C6.76592 16.4283 6.31794 17.1421 6.31794 17.9605C6.31794 19.1787 7.30972 20.1662 8.53316 20.1662C9.75659 20.1662 10.7484 19.1787 10.7484 17.9605C10.7484 17.3431 10.4934 16.7854 10.0829 16.385H18.376C17.9655 16.7854 17.7105 17.3431 17.7105 17.9605C17.7105 19.1787 18.7023 20.1662 19.9257 20.1662C21.1492 20.1662 22.141 19.1787 22.141 17.9605C22.141 17.0872 21.6311 16.3325 20.8918 15.9752L21.11 15.019C21.245 14.4275 20.7935 13.8642 20.1842 13.8642H9.56628L9.30738 12.6039H20.9035C21.3468 12.6039 21.731 12.2984 21.8292 11.8681Z" fill="black"/>
</svg>
