<svg width="19" height="21" viewBox="0 0 19 21" fill="none" xmlns="http://www.w3.org/2000/svg">
<path d="M9.34698 10.0831C12.1188 10.0831 14.3653 7.8262 14.3653 5.04154C14.3653 2.25688 12.1188 0 9.34698 0C6.57515 0 4.32867 2.25688 4.32867 5.04154C4.32867 7.8262 6.57515 10.0831 9.34698 10.0831ZM12.8598 11.3435H12.2051C11.3347 11.7452 10.3663 11.9737 9.34698 11.9737C8.32764 11.9737 7.36318 11.7452 6.4889 11.3435H5.83416C2.92511 11.3435 0.564941 13.7146 0.564941 16.6371V18.2756C0.564941 19.3193 1.40786 20.1662 2.44681 20.1662H16.2472C17.2861 20.1662 18.129 19.3193 18.129 18.2756V16.6371C18.129 13.7146 15.7688 11.3435 12.8598 11.3435Z" fill="black"/>
</svg>
