<svg width="21" height="21" viewBox="0 0 21 21" fill="none" xmlns="http://www.w3.org/2000/svg">
<path d="M19.8905 17.4366L15.9636 13.5098C15.7863 13.3325 15.5461 13.234 15.294 13.234H14.652C15.7391 11.8437 16.385 10.0949 16.385 8.1925C16.385 3.66693 12.7181 0 8.1925 0C3.66693 0 0 3.66693 0 8.1925C0 12.7181 3.66693 16.385 8.1925 16.385C10.0949 16.385 11.8437 15.7391 13.234 14.652V15.294C13.234 15.5461 13.3325 15.7863 13.5098 15.9636L17.4366 19.8905C17.8069 20.2607 18.4056 20.2607 18.7719 19.8905L19.8865 18.7758C20.2568 18.4056 20.2568 17.8069 19.8905 17.4366ZM8.1925 13.234C5.40784 13.234 3.15096 10.9811 3.15096 8.1925C3.15096 5.40784 5.4039 3.15096 8.1925 3.15096C10.9772 3.15096 13.234 5.4039 13.234 8.1925C13.234 10.9772 10.9811 13.234 8.1925 13.234Z" fill="black"/>
</svg>
